<svg width="194" height="189" viewBox="0 0 194 189" fill="none" xmlns="http://www.w3.org/2000/svg">
<path fill-rule="evenodd" clip-rule="evenodd" d="M157.315 3.33261C157.315 38.3318 130.301 66.7043 96.9776 66.7043C63.6544 66.7043 36.6406 38.3318 36.6406 3.33261C36.6406 2.37812 36.6607 1.42856 36.7005 0.484375L0.6875 0.484375C0.6875 41.9152 22.8097 77.7238 54.9023 94.688C22.8097 111.652 0.6875 147.461 0.6875 188.892L36.7173 188.892C36.6664 187.824 36.6406 186.749 36.6406 185.669C36.6406 150.669 63.6544 122.297 96.9776 122.297C130.301 122.297 157.315 150.669 157.315 185.669C157.315 186.749 157.289 187.824 157.238 188.892L193.079 188.892C193.079 147.461 170.957 111.652 138.865 94.688C170.957 77.7238 193.079 41.9152 193.079 0.484375L157.255 0.484375C157.294 1.42856 157.315 2.37812 157.315 3.33261Z" fill="#EBDAB7"/>
</svg>
