<svg width="281" height="287" viewBox="0 0 281 287" fill="none" xmlns="http://www.w3.org/2000/svg">
<path fill-rule="evenodd" clip-rule="evenodd" d="M280.906 188.426L280.906 130.906L280.844 130.906C280.349 114.573 276.892 98.4531 270.63 83.3354C263.846 66.9569 253.902 52.0751 241.367 39.5396C228.831 27.0041 213.95 17.0603 197.571 10.2761C181.194 3.49243 163.641 0.000513673 145.914 2.46169e-05L88.3941 2.21026e-05L88.3941 130.906L0.0560117 130.906L0.0560092 188.426L88.3941 188.426L88.3941 404.401H145.914L145.914 188.426L280.906 188.426ZM145.914 70.4321C180.194 70.4365 208.232 97.1566 210.341 130.906L145.914 130.906L145.914 70.4321Z" fill="#EBDAB7"/>
</svg>
