<svg width="216" height="104" viewBox="0 0 216 104" fill="none" xmlns="http://www.w3.org/2000/svg">
<path d="M1.32219 106.132C-0.304884 106.828 -0.304883 109.134 1.32219 109.831L49.7809 130.567C50.7856 130.997 51.2633 132.15 50.8569 133.165L31.2541 182.093C30.5959 183.736 32.2269 185.366 33.8697 184.708L82.7978 165.105C83.8123 164.699 84.9656 165.177 85.3955 166.181L106.132 214.64C106.828 216.267 109.134 216.267 109.831 214.64L130.567 166.181C130.997 165.177 132.15 164.699 133.165 165.105L182.093 184.708C183.735 185.366 185.366 183.736 184.708 182.093L165.105 133.165C164.699 132.15 165.177 130.997 166.181 130.567L214.64 109.831C216.267 109.134 216.267 106.828 214.64 106.132L166.181 85.3955C165.177 84.9656 164.699 83.8123 165.105 82.7978L184.708 33.8697C185.366 32.2269 183.736 30.5959 182.093 31.2541L133.165 50.8569C132.15 51.2634 130.997 50.7856 130.567 49.7809L109.831 1.3222C109.134 -0.304875 106.828 -0.304873 106.132 1.3222L85.3955 49.7809C84.9656 50.7856 83.8123 51.2634 82.7978 50.8569L33.8697 31.2541C32.2269 30.5959 30.5959 32.2269 31.2541 33.8697L50.8569 82.7978C51.2633 83.8123 50.7856 84.9656 49.7809 85.3955L1.32219 106.132Z" fill="#EBDAB7"/>
</svg>
