<svg width="62" height="70" viewBox="0 0 62 70" fill="none" xmlns="http://www.w3.org/2000/svg">
<path fill-rule="evenodd" clip-rule="evenodd" d="M31.0251 115.508C48.0717 115.508 61.8906 101.689 61.8906 84.6423L61.8906 31.5213C61.8906 14.4748 48.0717 0.655813 31.0251 0.65581C13.9786 0.655808 0.159609 14.4748 0.159606 31.5213L0.159599 84.6423C0.159597 101.689 13.9786 115.508 31.0251 115.508ZM31.0652 69.6929C22.7436 69.6929 15.9976 76.4389 15.9976 84.7605C15.9976 93.0821 22.7436 99.8281 31.0652 99.8281C39.3868 99.8281 46.1328 93.0821 46.1328 84.7605C46.1328 76.4389 39.3868 69.6929 31.0652 69.6929ZM15.9976 31.4051C15.9976 23.0834 22.7436 16.3375 31.0652 16.3375C39.3868 16.3375 46.1328 23.0835 46.1328 31.4051C46.1328 39.7267 39.3868 46.4727 31.0652 46.4727C22.7436 46.4727 15.9976 39.7267 15.9976 31.4051Z" fill="#EBDAB7"/>
</svg>
