<svg width="189" height="80" viewBox="0 0 189 80" fill="none" xmlns="http://www.w3.org/2000/svg">
<path fill-rule="evenodd" clip-rule="evenodd" d="M103.975 94.2102L103.975 0.669693H188.567C188.567 13.0158 186.135 25.2409 181.41 36.6472C176.686 48.0535 169.761 58.4175 161.031 67.1475C152.301 75.8775 141.937 82.8025 130.53 87.5271C122.036 91.0454 113.088 93.2922 103.975 94.2102ZM81.8536 0.669693L81.8537 93.8219C73.8736 92.7339 66.0487 90.6227 58.5753 87.5271C47.1691 82.8025 36.805 75.8775 28.0751 67.1475C19.3451 58.4175 12.4201 48.0535 7.69543 36.6472C2.9708 25.2409 0.539062 13.0158 0.539062 0.669685L81.8536 0.669693Z" fill="#EBDAB7"/>
</svg>
